<svg width="176" height="176" viewBox="0 0 176 176" fill="none" xmlns="http://www.w3.org/2000/svg">
<g clip-path="url(#clip0_616_263)">
<path d="M162.972 0H12.9937C5.80937 0 0 5.67188 0 12.6844V163.281C0 170.294 5.80937 176 12.9937 176H162.972C170.156 176 176 170.294 176 163.316V12.6844C176 5.67188 170.156 0 162.972 0ZM52.2156 149.978H26.0906V65.9656H52.2156V149.978ZM39.1531 54.5188C30.7656 54.5188 23.9938 47.7469 23.9938 39.3937C23.9938 31.0406 30.7656 24.2687 39.1531 24.2687C47.5063 24.2687 54.2781 31.0406 54.2781 39.3937C54.2781 47.7125 47.5063 54.5188 39.1531 54.5188ZM149.978 149.978H123.887V109.141C123.887 99.4125 123.716 86.8656 110.309 86.8656C96.7312 86.8656 94.6687 97.4875 94.6687 108.453V149.978H68.6125V65.9656H93.6375V77.4469H93.9812C97.4531 70.8469 105.978 63.8688 118.663 63.8688C145.097 63.8688 149.978 81.2625 149.978 103.881V149.978Z" fill="white"/>
</g>
<defs>
<clipPath id="clip0_616_263">
<rect width="176" height="176" fill="white"/>
</clipPath>
</defs>
</svg>
